<svg xmlns="http://www.w3.org/2000/svg" viewBox="0 0 100 100">
  <defs>
    <linearGradient id="g" x1="0" y1="0" x2="1" y2="1">
      <stop offset="0" stop-color="#ffd98a"/>
      <stop offset="1" stop-color="#f4b740"/>
    </linearGradient>
  </defs>
  <rect x="0" y="0" width="100" height="100" rx="22" fill="url(#g)"/>
  <g transform="translate(30,14) scale(0.246)">
    <path d="M70 8 C80 6 88 12 90 24 L86 34 C92 40 98 46 100 58 L106 92 C108 110 100 122 102 138 C112 150 130 158 140 178 L150 210 C152 228 140 240 132 258 L120 300 C116 285 112 272 106 258 C98 240 90 228 80 214 C70 206 58 204 46 196 L14 182 C28 170 44 166 52 152 C48 132 50 112 52 96 C50 76 52 56 56 40 C60 26 64 16 70 8 Z" fill="#08111a"/>
    <path d="M90 180 c-9 -11 -27 -4 -27 9 c0 13 27 27 27 27 c0 0 27 -14 27 -27 c0 -13 -18 -20 -27 -9 Z" fill="url(#g)"/>
  </g>
</svg>
